<svg width="1920" height="954" fill="none" xmlns="http://www.w3.org/2000/svg"><g clip-path="url(#prefix__clip0_58_787)" fill-rule="evenodd" clip-rule="evenodd" fill="rgba(217,220,237,1)"><path d="M1660.78-198.081c41-37.158 104.32-33.985 141.42 7.087 110.48 122.305 170.1 282.332 166.66 447.27-3.44 164.938-69.67 322.331-185.14 439.906-115.49 117.578-271.47 186.426-435.99 192.395-164.52 5.968-325.06-51.397-448.719-160.304-41.528-36.574-45.591-99.941-9.074-141.535 36.517-41.593 99.784-45.662 141.313-9.088 85.25 75.079 195.89 114.598 309.23 110.486 113.35-4.112 220.85-51.546 300.47-132.611 79.63-81.068 125.32-189.63 127.7-303.434 2.37-113.804-38.77-224.188-114.95-308.523-37.1-41.072-33.93-104.49 7.08-141.649z"/><path d="M1544.89 37.429c50.71-22.192 109.79.947 131.97 51.683a383.79 383.79 0 0110.87 279.732c-31.73 91.288-96.71 167.233-181.94 212.762a384.921 384.921 0 01-278 33.06c-93.53-24.262-174.53-82.823-226.82-164.088-29.965-46.559-16.532-108.606 30-138.586 46.53-29.979 108.54-16.538 138.51 30.021 24.99 38.834 63.75 66.898 108.61 78.536a184.603 184.603 0 00133.31-15.847c40.83-21.815 71.88-58.154 87.03-101.727a183.148 183.148 0 00-5.19-133.5c-22.18-50.735.95-109.854 51.65-132.046z"/></g><defs><clipPath id="prefix__clip0_58_787"><path fill="#fff" d="M0 0h1920v954H0z"/></clipPath></defs></svg>